
<svg width="450px" height="150px" viewBox="0 0 450 150" version="1.1" xmlns="http://www.w3.org/2000/svg" xmlns:xlink="http://www.w3.org/1999/xlink">
    <!-- Generator: Sketch 48.2 (47327) - http://www.bohemiancoding.com/sketch -->
    <desc>Created with Sketch.</desc>
    <defs>
        <path d="M91.36,80.8 C91.4666672,77.2799824 90.85334,74.453344 89.52,72.32 C88.18666,70.186656 86.4000112,68.5333392 84.16,67.36 C81.9199888,66.1866608 79.3866808,65.4133352 76.56,65.04 C73.7333192,64.6666648 70.9333472,64.48 68.16,64.48 L30.88,64.48 L30.88,96.16 L64.64,96.16 C67.5200144,96.16 70.5066512,96.0000016 73.6,95.68 C76.6933488,95.3599984 79.5199872,94.666672 82.08,93.6 C84.6400128,92.533328 86.7733248,90.9866768 88.48,88.96 C90.1866752,86.9333232 91.1466656,84.2133504 91.36,80.8 Z M88.16,31.68 C88.0533328,26.6666416 86.2400176,23.360008 82.72,21.76 C79.1999824,20.159992 74.1333664,19.36 67.52,19.36 L30.88,19.36 L30.88,45.6 L72,45.6 C77.2266928,45.6 81.2799856,44.533344 84.16,42.4 C87.0400144,40.266656 88.3733344,36.6933584 88.16,31.68 Z M119.36,83.36 C119.36,89.8666992 117.893348,95.2266456 114.96,99.44 C112.026652,103.653354 108.26669,106.959988 103.68,109.36 C99.0933104,111.760012 93.9733616,113.439995 88.32,114.4 C82.6666384,115.360005 77.0666944,115.84 71.52,115.84 L0,115.84 L0,111.84 C2.133344,111.306664 3.5733296,110.640004 4.32,109.84 C5.0666704,109.039996 5.44,107.520011 5.44,105.28 L5.44,10.4 C5.44,8.266656 5.0666704,6.800004 4.32,6 C3.5733296,5.199996 2.133344,4.533336 0,4 L0,0 L72.32,0 C77.120024,0 81.9733088,0.5066616 86.88,1.52 C91.7866912,2.5333384 96.23998,4.1866552 100.24,6.48 C104.24002,8.7733448 107.519987,11.8399808 110.08,15.68 C112.640013,19.5200192 113.92,24.3199712 113.92,30.08 C113.92,35.3066928 112.800011,39.9466464 110.56,44 C108.319989,48.0533536 104.746691,51.5199856 99.84,54.4 L99.84,55.36 C102.50668,56.2133376 105.039988,57.4933248 107.44,59.2 C109.840012,60.9066752 111.919991,62.959988 113.68,65.36 C115.440009,67.760012 116.826662,70.4799848 117.84,73.52 C118.853338,76.5600152 119.36,79.8399824 119.36,83.36 Z M225.76,80.8 C225.866667,77.2799824 225.25334,74.453344 223.92,72.32 C222.58666,70.186656 220.800011,68.5333392 218.56,67.36 C216.319989,66.1866608 213.786681,65.4133352 210.96,65.04 C208.133319,64.6666648 205.333347,64.48 202.56,64.48 L165.28,64.48 L165.28,96.16 L199.04,96.16 C201.920014,96.16 204.906651,96.0000016 208,95.68 C211.093349,95.3599984 213.919987,94.666672 216.48,93.6 C219.040013,92.533328 221.173325,90.9866768 222.88,88.96 C224.586675,86.9333232 225.546666,84.2133504 225.76,80.8 Z M222.56,31.68 C222.453333,26.6666416 220.640018,23.360008 217.12,21.76 C213.599982,20.159992 208.533366,19.36 201.92,19.36 L165.28,19.36 L165.28,45.6 L206.4,45.6 C211.626693,45.6 215.679986,44.533344 218.56,42.4 C221.440014,40.266656 222.773334,36.6933584 222.56,31.68 Z M253.76,83.36 C253.76,89.8666992 252.293348,95.2266456 249.36,99.44 C246.426652,103.653354 242.66669,106.959988 238.08,109.36 C233.49331,111.760012 228.373362,113.439995 222.72,114.4 C217.066638,115.360005 211.466694,115.84 205.92,115.84 L134.4,115.84 L134.4,111.84 C136.533344,111.306664 137.97333,110.640004 138.72,109.84 C139.46667,109.039996 139.84,107.520011 139.84,105.28 L139.84,10.4 C139.84,8.266656 139.46667,6.800004 138.72,6 C137.97333,5.199996 136.533344,4.533336 134.4,4 L134.4,0 L206.72,0 C211.520024,0 216.373309,0.5066616 221.28,1.52 C226.186691,2.5333384 230.63998,4.1866552 234.64,6.48 C238.64002,8.7733448 241.919987,11.8399808 244.48,15.68 C247.040013,19.5200192 248.32,24.3199712 248.32,30.08 C248.32,35.3066928 247.200011,39.9466464 244.96,44 C242.719989,48.0533536 239.146691,51.5199856 234.24,54.4 L234.24,55.36 C236.90668,56.2133376 239.439988,57.4933248 241.84,59.2 C244.240012,60.9066752 246.319991,62.959988 248.08,65.36 C249.840009,67.760012 251.226662,70.4799848 252.24,73.52 C253.253338,76.5600152 253.76,79.8399824 253.76,83.36 Z M387.84,102.84588 L387.84,34.72 L341.44,112.8 L297.28,34.72 L297.28,105.44 C297.28,107.573344 297.626663,109.039996 298.32,109.84 C299.013337,110.640004 300.426656,111.306664 302.56,111.84 L302.56,115.84 L268.8,115.84 L268.8,111.84 C270.826677,111.306664 272.239996,110.640004 273.04,109.84 C273.840004,109.039996 274.24,107.573344 274.24,105.44 L274.24,10.4 C274.24,8.266656 273.840004,6.800004 273.04,6 C272.239996,5.199996 270.826677,4.533336 268.8,4 L268.8,0 L313.28,0 L313.28,4 C311.466658,4.2133344 310.320002,5.0933256 309.84,6.64 C309.359998,8.1866744 309.546662,9.759992 310.4,11.36 L343.04,69.92 L376.96,12.48 C378.026672,10.6666576 378.373335,8.960008 378,7.36 C377.626665,5.759992 376.48001,4.6400032 374.56,4 L374.56,0 L418.08,0 L418.08,4 C415.519987,4.7466704 413.94667,5.5466624 413.36,6.4 C412.77333,7.2533376 412.48,8.5866576 412.48,10.4 L412.48,102.84588 L387.84,102.84588 Z" id="path-1"></path>
        <filter x="-1.2%" y="-4.3%" width="103.3%" height="112.1%" filterUnits="objectBoundingBox" id="filter-2">
            <feOffset dx="2" dy="2" in="SourceAlpha" result="shadowOffsetOuter1"></feOffset>
            <feGaussianBlur stdDeviation="2" in="shadowOffsetOuter1" result="shadowBlurOuter1"></feGaussianBlur>
            <feColorMatrix values="0 0 0 0 0   0 0 0 0 0   0 0 0 0 0  0 0 0 0.5 0" type="matrix" in="shadowBlurOuter1"></feColorMatrix>
        </filter>
        <filter x="-6.1%" y="-14.7%" width="117.1%" height="141.2%" filterUnits="objectBoundingBox" id="filter-3">
            <feOffset dx="2" dy="2" in="SourceAlpha" result="shadowOffsetOuter1"></feOffset>
            <feGaussianBlur stdDeviation="2" in="shadowOffsetOuter1" result="shadowBlurOuter1"></feGaussianBlur>
            <feColorMatrix values="0 0 0 0 0   0 0 0 0 0   0 0 0 0 0  0 0 0 0.5 0" type="matrix" in="shadowBlurOuter1" result="shadowMatrixOuter1"></feColorMatrix>
            <feMerge>
                <feMergeNode in="shadowMatrixOuter1"></feMergeNode>
                <feMergeNode in="SourceGraphic"></feMergeNode>
            </feMerge>
        </filter>
    </defs>
    <g id="Page-1" stroke="none" stroke-width="1" fill="none" fill-rule="evenodd">
        <g id="Group-5" transform="translate(2.000000, 2.000000)">
            <path d="M15.767,135.087 C15.7850001,134.492997 15.6815011,134.016002 15.4565,133.656 C15.2314989,133.295998 14.9300019,133.017001 14.552,132.819 C14.1739981,132.620999 13.7465024,132.4905 13.2695,132.4275 C12.7924976,132.3645 12.3200023,132.333 11.852,132.333 L5.561,132.333 L5.561,137.679 L11.258,137.679 C11.7440024,137.679 12.2479974,137.652 12.77,137.598 C13.2920026,137.544 13.7689978,137.427001 14.201,137.247 C14.6330022,137.066999 14.9929986,136.806002 15.281,136.464 C15.5690014,136.121998 15.7309998,135.663003 15.767,135.087 Z M15.227,126.798 C15.2089999,125.951996 14.903003,125.394001 14.309,125.124 C13.714997,124.853999 12.8600056,124.719 11.744,124.719 L5.561,124.719 L5.561,129.147 L12.5,129.147 C13.3820044,129.147 14.0659976,128.967002 14.552,128.607 C15.0380024,128.246998 15.2630002,127.644004 15.227,126.798 Z M20.492,135.519 C20.492,136.617005 20.2445025,137.521496 19.7495,138.2325 C19.2544975,138.943504 18.6200039,139.501498 17.846,139.9065 C17.0719961,140.311502 16.2080048,140.594999 15.254,140.757 C14.2999952,140.919001 13.3550047,141 12.419,141 L0.35,141 L0.35,140.325 C0.7100018,140.235 0.95299937,140.122501 1.079,139.9875 C1.20500063,139.852499 1.268,139.596002 1.268,139.218 L1.268,123.207 C1.268,122.846998 1.20500063,122.599501 1.079,122.4645 C0.95299937,122.329499 0.7100018,122.217 0.35,122.127 L0.35,121.452 L12.554,121.452 C13.364004,121.452 14.1829959,121.537499 15.011,121.7085 C15.8390041,121.879501 16.5904966,122.158498 17.2655,122.5455 C17.9405034,122.932502 18.4939978,123.449997 18.926,124.098 C19.3580022,124.746003 19.574,125.555995 19.574,126.528 C19.574,127.410004 19.3850019,128.192997 19.007,128.877 C18.6289981,129.561003 18.0260041,130.145998 17.198,130.632 L17.198,130.794 C17.6480022,130.938001 18.075498,131.153999 18.4805,131.442 C18.885502,131.730001 19.2364985,132.076498 19.5335,132.4815 C19.8305015,132.886502 20.0644991,133.345497 20.2355,133.8585 C20.4065009,134.371503 20.492,134.924997 20.492,135.519 Z M28.186,137.436 L27.548,139.196 C27.210665,139.900004 27.3866632,140.317999 28.076,140.45 L28.076,141 L22.62,141 L22.62,140.45 C23.0306687,140.347333 23.3459989,140.145668 23.566,139.845 C23.7860011,139.544332 23.9766659,139.225335 24.138,138.888 L29.154,126.832 C29.212667,126.714666 29.2529999,126.597334 29.275,126.48 C29.2970001,126.362666 29.2896669,126.249001 29.253,126.139 C29.2163331,126.028999 29.1393339,125.93 29.022,125.842 C28.9046661,125.754 28.7360011,125.680667 28.516,125.622 L28.516,125.072 L36.326,125.072 L36.326,125.622 C36.0766654,125.680667 35.8933339,125.757666 35.776,125.853 C35.6586661,125.948334 35.5853335,126.050999 35.556,126.161 C35.5266665,126.271001 35.5266665,126.388333 35.556,126.513 C35.5853335,126.637667 35.629333,126.758666 35.688,126.876 L40.682,138.888 C40.8433341,139.225335 41.0339989,139.544332 41.254,139.845 C41.4740011,140.145668 41.7893313,140.347333 42.2,140.45 L42.2,141 L36.744,141 L36.744,140.45 C37.081335,140.376666 37.3086661,140.241001 37.426,140.043 C37.5433339,139.844999 37.5140009,139.562669 37.338,139.196 L36.656,137.436 L28.186,137.436 Z M32.916,127.8 L31.904,127.8 L29.11,135.016 L35.732,135.016 L32.916,127.8 Z M61.686,139.02 L61.246,139.306 C61.1286661,139.218 61.0150005,139.144667 60.905,139.086 C60.7949994,139.027333 60.6960004,139.027333 60.608,139.086 C59.478661,139.80467 58.2283402,140.383998 56.857,140.824 C55.4856598,141.264002 54.0446742,141.484 52.534,141.484 C51.1993267,141.484 49.9600057,141.271335 48.816,140.846 C47.6719943,140.420665 46.6820042,139.834004 45.846,139.086 C45.0099958,138.337996 44.3536691,137.450672 43.877,136.424 C43.400331,135.397328 43.162,134.282673 43.162,133.08 C43.162,131.862661 43.3966643,130.737005 43.866,129.703 C44.3353357,128.668995 44.9953291,127.778004 45.846,127.03 C46.6966709,126.281996 47.7233273,125.695335 48.926,125.27 C50.1286727,124.844665 51.463326,124.632 52.93,124.632 C53.6926705,124.632 54.4443296,124.697999 55.185,124.83 C55.9256704,124.962001 56.6003303,125.115999 57.209,125.292 C57.8176697,125.468001 58.3383312,125.636666 58.771,125.798 C59.2036688,125.959334 59.5079991,126.069333 59.684,126.128 C59.8160007,126.172 59.9773324,126.190333 60.168,126.183 C60.3586676,126.175667 60.5126661,126.113334 60.63,125.996 L61.092,126.304 L58.738,130.088 L58.254,129.802 L58.364,129.516 C58.364,129.295999 58.2026683,129.065001 57.88,128.823 C57.5573317,128.580999 57.1320026,128.353668 56.604,128.141 C56.0759974,127.928332 55.4820033,127.756001 54.822,127.624 C54.1619967,127.491999 53.5020033,127.426 52.842,127.426 C51.9326621,127.426 51.1003371,127.565332 50.345,127.844 C49.5896629,128.122668 48.944336,128.503998 48.409,128.988 C47.873664,129.472002 47.4556682,130.047663 47.155,130.715 C46.8543318,131.382337 46.704,132.111996 46.704,132.904 C46.704,133.740004 46.8543318,134.513663 47.155,135.225 C47.4556682,135.936337 47.8773306,136.552331 48.42,137.073 C48.9626694,137.593669 49.6189961,137.996999 50.389,138.283 C51.1590038,138.569001 52.0059954,138.712 52.93,138.712 C53.5753366,138.712 54.2206634,138.631334 54.866,138.47 C55.5113366,138.308666 56.1053306,138.110668 56.648,137.876 C57.1906694,137.641332 57.6563314,137.392001 58.045,137.128 C58.4336686,136.863999 58.7086659,136.636668 58.87,136.446 C58.9580004,136.328666 58.9910001,136.196667 58.969,136.05 C58.9469999,135.903333 58.906667,135.764001 58.848,135.632 L59.31,135.346 L61.686,139.02 Z M81.876,141 L75.496,141 L75.496,140.45 C75.6866676,140.435333 75.8186663,140.384 75.892,140.296 C75.9653337,140.208 75.9983334,140.098001 75.991,139.966 C75.9836666,139.833999 75.9396671,139.687334 75.859,139.526 C75.7783329,139.364666 75.6866672,139.203334 75.584,139.042 L71.008,133.08 L68.5,135.016 L68.5,139.57 C68.5,139.863335 68.5549994,140.064999 68.665,140.175 C68.7750006,140.285001 68.9766652,140.376666 69.27,140.45 L69.27,141 L64.166,141 L64.166,140.45 C64.4446681,140.376666 64.6389995,140.285001 64.749,140.175 C64.8590006,140.064999 64.914,139.863335 64.914,139.57 L64.914,126.502 C64.914,126.208665 64.8626672,126.007001 64.76,125.897 C64.6573328,125.786999 64.4593348,125.695334 64.166,125.622 L64.166,125.072 L69.27,125.072 L69.27,125.622 C68.9766652,125.695334 68.7750006,125.786999 68.665,125.897 C68.5549994,126.007001 68.5,126.208665 68.5,126.502 L68.5,131.254 L74.396,126.832 C74.5426674,126.714666 74.6673328,126.601001 74.77,126.491 C74.8726672,126.380999 74.924,126.260001 74.924,126.128 C74.924,125.966666 74.8690006,125.849334 74.759,125.776 C74.6489995,125.702666 74.5353339,125.651333 74.418,125.622 L74.418,125.072 L81.15,125.072 L81.15,125.622 C80.6806643,125.783334 80.1673361,126.043665 79.61,126.403 C79.0526639,126.762335 78.5613355,127.110665 78.136,127.448 L73.67,130.946 L79.676,138.888 C79.9106678,139.210668 80.2296647,139.522332 80.633,139.823 C81.0363354,140.123668 81.4506645,140.332666 81.876,140.45 L81.876,141 Z M106.62,135.087 C106.638,134.492997 106.534501,134.016002 106.3095,133.656 C106.084499,133.295998 105.783002,133.017001 105.405,132.819 C105.026998,132.620999 104.599502,132.4905 104.1225,132.4275 C103.645498,132.3645 103.173002,132.333 102.705,132.333 L96.414,132.333 L96.414,137.679 L102.111,137.679 C102.597002,137.679 103.100997,137.652 103.623,137.598 C104.145003,137.544 104.621998,137.427001 105.054,137.247 C105.486002,137.066999 105.845999,136.806002 106.134,136.464 C106.422001,136.121998 106.584,135.663003 106.62,135.087 Z M106.08,126.798 C106.062,125.951996 105.756003,125.394001 105.162,125.124 C104.567997,124.853999 103.713006,124.719 102.597,124.719 L96.414,124.719 L96.414,129.147 L103.353,129.147 C104.235004,129.147 104.918998,128.967002 105.405,128.607 C105.891002,128.246998 106.116,127.644004 106.08,126.798 Z M111.345,135.519 C111.345,136.617005 111.097502,137.521496 110.6025,138.2325 C110.107498,138.943504 109.473004,139.501498 108.699,139.9065 C107.924996,140.311502 107.061005,140.594999 106.107,140.757 C105.152995,140.919001 104.208005,141 103.272,141 L91.203,141 L91.203,140.325 C91.5630018,140.235 91.8059994,140.122501 91.932,139.9875 C92.0580006,139.852499 92.121,139.596002 92.121,139.218 L92.121,123.207 C92.121,122.846998 92.0580006,122.599501 91.932,122.4645 C91.8059994,122.329499 91.5630018,122.217 91.203,122.127 L91.203,121.452 L103.407,121.452 C104.217004,121.452 105.035996,121.537499 105.864,121.7085 C106.692004,121.879501 107.443497,122.158498 108.1185,122.5455 C108.793503,122.932502 109.346998,123.449997 109.779,124.098 C110.211002,124.746003 110.427,125.555995 110.427,126.528 C110.427,127.410004 110.238002,128.192997 109.86,128.877 C109.481998,129.561003 108.879004,130.145998 108.051,130.632 L108.051,130.794 C108.501002,130.938001 108.928498,131.153999 109.3335,131.442 C109.738502,131.730001 110.089499,132.076498 110.3865,132.4815 C110.683501,132.886502 110.917499,133.345497 111.0885,133.8585 C111.259501,134.371503 111.345,134.924997 111.345,135.519 Z M127.135,129.912 C127.135,129.369331 126.992001,128.955001 126.706,128.669 C126.419999,128.382999 126.064335,128.174001 125.639,128.042 C125.213665,127.909999 124.759002,127.836667 124.275,127.822 C123.790998,127.807333 123.358335,127.8 122.977,127.8 L118.379,127.8 L118.379,132.178 L123.087,132.178 C123.483002,132.178 123.919331,132.163333 124.396,132.134 C124.872669,132.104667 125.312665,132.016667 125.716,131.87 C126.119335,131.723333 126.456665,131.496002 126.728,131.188 C126.999335,130.879998 127.135,130.454669 127.135,129.912 Z M131.403,141 L125.551,141 L125.551,140.45 C125.697667,140.420667 125.829666,140.369334 125.947,140.296 C126.064334,140.222666 126.123,140.105334 126.123,139.944 C126.123,139.826666 126.086334,139.702001 126.013,139.57 C125.939666,139.437999 125.859,139.313334 125.771,139.196 L122.515,134.818 L118.379,134.818 L118.379,139.57 C118.379,139.863335 118.433999,140.064999 118.544,140.175 C118.654001,140.285001 118.855665,140.376666 119.149,140.45 L119.149,141 L114.133,141 L114.133,140.45 C114.426335,140.376666 114.624333,140.285001 114.727,140.175 C114.829667,140.064999 114.881,139.863335 114.881,139.57 L114.881,126.502 C114.881,126.208665 114.829667,126.007001 114.727,125.897 C114.624333,125.786999 114.426335,125.695334 114.133,125.622 L114.133,125.072 L123.879,125.072 C124.627004,125.072 125.389663,125.137999 126.167,125.27 C126.944337,125.402001 127.651997,125.636665 128.29,125.974 C128.928003,126.311335 129.452331,126.780664 129.863,127.382 C130.273669,127.983336 130.479,128.745995 130.479,129.67 C130.479,130.359337 130.372668,130.971664 130.16,131.507 C129.947332,132.042336 129.650335,132.507998 129.269,132.904 C128.887665,133.300002 128.429336,133.629999 127.894,133.894 C127.358664,134.158001 126.77567,134.363333 126.145,134.51 L129.423,138.932 C129.701668,139.313335 129.994998,139.628665 130.303,139.878 C130.611002,140.127335 130.977665,140.317999 131.403,140.45 L131.403,141 Z M152.627,133.036 C152.627,134.356007 152.363003,135.540328 151.835,136.589 C151.306997,137.637672 150.595671,138.528663 149.701,139.262 C148.806329,139.995337 147.779672,140.556331 146.621,140.945 C145.462328,141.333669 144.25234,141.528 142.991,141.528 C141.744327,141.528 140.545339,141.330002 139.394,140.934 C138.242661,140.537998 137.227004,139.96967 136.347,139.229 C135.466996,138.48833 134.763003,137.597339 134.235,136.556 C133.706997,135.514661 133.443,134.34134 133.443,133.036 C133.443,131.701327 133.714331,130.506005 134.257,129.45 C134.799669,128.393995 135.525662,127.503004 136.435,126.777 C137.344338,126.050996 138.385661,125.497335 139.559,125.116 C140.732339,124.734665 141.956994,124.544 143.233,124.544 C144.465006,124.544 145.649328,124.745665 146.786,125.149 C147.922672,125.552335 148.923662,126.12433 149.789,126.865 C150.654338,127.60567 151.343664,128.500328 151.857,129.549 C152.370336,130.597672 152.627,131.759994 152.627,133.036 Z M149.305,133.036 C149.305,132.170662 149.140002,131.37867 148.81,130.66 C148.479998,129.94133 148.029003,129.325336 147.457,128.812 C146.884997,128.298664 146.21767,127.899001 145.455,127.613 C144.69233,127.326999 143.871004,127.184 142.991,127.184 C142.125662,127.184 141.315337,127.326999 140.56,127.613 C139.804663,127.899001 139.144669,128.298664 138.58,128.812 C138.015331,129.325336 137.571668,129.94133 137.249,130.66 C136.926332,131.37867 136.765,132.170662 136.765,133.036 C136.765,133.901338 136.926332,134.689663 137.249,135.401 C137.571668,136.112337 138.015331,136.728331 138.58,137.249 C139.144669,137.769669 139.804663,138.172999 140.56,138.459 C141.315337,138.745001 142.125662,138.888 142.991,138.888 C143.871004,138.888 144.69233,138.745001 145.455,138.459 C146.21767,138.172999 146.884997,137.773336 147.457,137.26 C148.029003,136.746664 148.479998,136.13067 148.81,135.412 C149.140002,134.69333 149.305,133.901338 149.305,133.036 Z M174.951,133.036 C174.951,134.356007 174.687003,135.540328 174.159,136.589 C173.630997,137.637672 172.919671,138.528663 172.025,139.262 C171.130329,139.995337 170.103672,140.556331 168.945,140.945 C167.786328,141.333669 166.57634,141.528 165.315,141.528 C164.068327,141.528 162.869339,141.330002 161.718,140.934 C160.566661,140.537998 159.551004,139.96967 158.671,139.229 C157.790996,138.48833 157.087003,137.597339 156.559,136.556 C156.030997,135.514661 155.767,134.34134 155.767,133.036 C155.767,131.701327 156.038331,130.506005 156.581,129.45 C157.123669,128.393995 157.849662,127.503004 158.759,126.777 C159.668338,126.050996 160.709661,125.497335 161.883,125.116 C163.056339,124.734665 164.280994,124.544 165.557,124.544 C166.789006,124.544 167.973328,124.745665 169.11,125.149 C170.246672,125.552335 171.247662,126.12433 172.113,126.865 C172.978338,127.60567 173.667664,128.500328 174.181,129.549 C174.694336,130.597672 174.951,131.759994 174.951,133.036 Z M171.629,133.036 C171.629,132.170662 171.464002,131.37867 171.134,130.66 C170.803998,129.94133 170.353003,129.325336 169.781,128.812 C169.208997,128.298664 168.54167,127.899001 167.779,127.613 C167.01633,127.326999 166.195004,127.184 165.315,127.184 C164.449662,127.184 163.639337,127.326999 162.884,127.613 C162.128663,127.899001 161.468669,128.298664 160.904,128.812 C160.339331,129.325336 159.895668,129.94133 159.573,130.66 C159.250332,131.37867 159.089,132.170662 159.089,133.036 C159.089,133.901338 159.250332,134.689663 159.573,135.401 C159.895668,136.112337 160.339331,136.728331 160.904,137.249 C161.468669,137.769669 162.128663,138.172999 162.884,138.459 C163.639337,138.745001 164.449662,138.888 165.315,138.888 C166.195004,138.888 167.01633,138.745001 167.779,138.459 C168.54167,138.172999 169.208997,137.773336 169.781,137.26 C170.353003,136.746664 170.803998,136.13067 171.134,135.412 C171.464002,134.69333 171.629,133.901338 171.629,133.036 Z M195.471,141 L189.091,141 L189.091,140.45 C189.281668,140.435333 189.413666,140.384 189.487,140.296 C189.560334,140.208 189.593333,140.098001 189.586,139.966 C189.578667,139.833999 189.534667,139.687334 189.454,139.526 C189.373333,139.364666 189.281667,139.203334 189.179,139.042 L184.603,133.08 L182.095,135.016 L182.095,139.57 C182.095,139.863335 182.149999,140.064999 182.26,140.175 C182.370001,140.285001 182.571665,140.376666 182.865,140.45 L182.865,141 L177.761,141 L177.761,140.45 C178.039668,140.376666 178.233999,140.285001 178.344,140.175 C178.454001,140.064999 178.509,139.863335 178.509,139.57 L178.509,126.502 C178.509,126.208665 178.457667,126.007001 178.355,125.897 C178.252333,125.786999 178.054335,125.695334 177.761,125.622 L177.761,125.072 L182.865,125.072 L182.865,125.622 C182.571665,125.695334 182.370001,125.786999 182.26,125.897 C182.149999,126.007001 182.095,126.208665 182.095,126.502 L182.095,131.254 L187.991,126.832 C188.137667,126.714666 188.262333,126.601001 188.365,126.491 C188.467667,126.380999 188.519,126.260001 188.519,126.128 C188.519,125.966666 188.464001,125.849334 188.354,125.776 C188.243999,125.702666 188.130334,125.651333 188.013,125.622 L188.013,125.072 L194.745,125.072 L194.745,125.622 C194.275664,125.783334 193.762336,126.043665 193.205,126.403 C192.647664,126.762335 192.156335,127.110665 191.731,127.448 L187.265,130.946 L193.271,138.888 C193.505668,139.210668 193.824665,139.522332 194.228,139.823 C194.631335,140.123668 195.045665,140.332666 195.471,140.45 L195.471,141 Z M229.989,141 L223.968,141 L223.968,140.325 C224.328002,140.235 224.570999,140.122501 224.697,139.9875 C224.823001,139.852499 224.886,139.605002 224.886,139.245 L224.886,127.311 L217.056,140.487 L209.604,127.311 L209.604,139.245 C209.604,139.605002 209.662499,139.852499 209.7795,139.9875 C209.896501,140.122501 210.134998,140.235 210.495,140.325 L210.495,141 L204.798,141 L204.798,140.325 C205.140002,140.235 205.378499,140.122501 205.5135,139.9875 C205.648501,139.852499 205.716,139.605002 205.716,139.245 L205.716,123.207 C205.716,122.846998 205.648501,122.599501 205.5135,122.4645 C205.378499,122.329499 205.140002,122.217 204.798,122.127 L204.798,121.452 L212.304,121.452 L212.304,122.127 C211.997998,122.163 211.8045,122.311499 211.7235,122.5725 C211.6425,122.833501 211.673999,123.098999 211.818,123.369 L217.326,133.251 L223.05,123.558 C223.230001,123.251998 223.2885,122.964001 223.2255,122.694 C223.1625,122.423999 222.969002,122.235001 222.645,122.127 L222.645,121.452 L229.989,121.452 L229.989,122.127 C229.556998,122.253001 229.2915,122.387999 229.1925,122.532 C229.0935,122.676001 229.044,122.900998 229.044,123.207 L229.044,139.245 C229.044,139.605002 229.111499,139.852499 229.2465,139.9875 C229.381501,140.122501 229.628998,140.235 229.989,140.325 L229.989,141 Z M237.845,137.436 L237.207,139.196 C236.869665,139.900004 237.045663,140.317999 237.735,140.45 L237.735,141 L232.279,141 L232.279,140.45 C232.689669,140.347333 233.004999,140.145668 233.225,139.845 C233.445001,139.544332 233.635666,139.225335 233.797,138.888 L238.813,126.832 C238.871667,126.714666 238.912,126.597334 238.934,126.48 C238.956,126.362666 238.948667,126.249001 238.912,126.139 C238.875333,126.028999 238.798334,125.93 238.681,125.842 C238.563666,125.754 238.395001,125.680667 238.175,125.622 L238.175,125.072 L245.985,125.072 L245.985,125.622 C245.735665,125.680667 245.552334,125.757666 245.435,125.853 C245.317666,125.948334 245.244333,126.050999 245.215,126.161 C245.185667,126.271001 245.185667,126.388333 245.215,126.513 C245.244333,126.637667 245.288333,126.758666 245.347,126.876 L250.341,138.888 C250.502334,139.225335 250.692999,139.544332 250.913,139.845 C251.133001,140.145668 251.448331,140.347333 251.859,140.45 L251.859,141 L246.403,141 L246.403,140.45 C246.740335,140.376666 246.967666,140.241001 247.085,140.043 C247.202334,139.844999 247.173001,139.562669 246.997,139.196 L246.315,137.436 L237.845,137.436 Z M242.575,127.8 L241.563,127.8 L238.769,135.016 L245.391,135.016 L242.575,127.8 Z M269.783,136.006 C269.783,136.68067 269.654668,137.278331 269.398,137.799 C269.141332,138.319669 268.796669,138.781665 268.364,139.185 C267.931331,139.588335 267.436336,139.929332 266.879,140.208 C266.321664,140.486668 265.73867,140.710332 265.13,140.879 C264.52133,141.047668 263.909003,141.172333 263.293,141.253 C262.676997,141.333667 262.105003,141.374 261.577,141.374 C260.447661,141.374 259.344005,141.286001 258.266,141.11 C257.187995,140.933999 256.135672,140.604002 255.109,140.12 C254.888999,140.017333 254.687334,139.966 254.504,139.966 C254.320666,139.966 254.148334,140.068666 253.987,140.274 L253.349,140.01 L255.087,136.072 L255.703,136.292 C255.659,136.438667 255.651667,136.585333 255.681,136.732 C255.710333,136.878667 255.798333,137.010666 255.945,137.128 C256.267668,137.377335 256.670998,137.589999 257.155,137.766 C257.639002,137.942001 258.148664,138.084999 258.684,138.195 C259.219336,138.305001 259.750997,138.389333 260.279,138.448 C260.807003,138.506667 261.276331,138.536 261.687,138.536 C261.995002,138.536 262.390998,138.510334 262.875,138.459 C263.359002,138.407666 263.828331,138.308667 264.283,138.162 C264.737669,138.015333 265.129998,137.802668 265.46,137.524 C265.790002,137.245332 265.955,136.886002 265.955,136.446 C265.955,135.932664 265.621337,135.514668 264.954,135.192 C264.286663,134.869332 263.271007,134.671334 261.907,134.598 C261.364331,134.583333 260.796003,134.561333 260.202,134.532 C259.607997,134.502667 259.014003,134.444 258.42,134.356 C257.825997,134.268 257.254003,134.132334 256.704,133.949 C256.153997,133.765666 255.659002,133.505335 255.219,133.168 C254.734998,132.801332 254.379334,132.350336 254.152,131.815 C253.924666,131.279664 253.811,130.682003 253.811,130.022 C253.811,129.229996 253.990665,128.504003 254.35,127.844 C254.709335,127.183997 255.218997,126.623002 255.879,126.161 C256.539003,125.698998 257.327329,125.339668 258.244,125.083 C259.160671,124.826332 260.183661,124.698 261.313,124.698 C262.237005,124.698 263.212328,124.785999 264.239,124.962 C265.265672,125.138001 266.328994,125.460664 267.429,125.93 C267.825002,126.120668 268.125666,126.227 268.331,126.249 C268.536334,126.271 268.763665,126.186668 269.013,125.996 L269.519,126.26 L267.539,130.066 L266.945,129.78 C266.945,129.471998 266.835001,129.200668 266.615,128.966 C266.306998,128.672665 265.933002,128.427001 265.493,128.229 C265.052998,128.030999 264.591002,127.869667 264.107,127.745 C263.622998,127.620333 263.139002,127.532334 262.655,127.481 C262.170998,127.429666 261.723669,127.404 261.313,127.404 C261.019665,127.404 260.649336,127.429666 260.202,127.481 C259.754664,127.532334 259.325669,127.634999 258.915,127.789 C258.504331,127.943001 258.152335,128.151999 257.859,128.416 C257.565665,128.680001 257.419,129.024665 257.419,129.45 C257.419,129.846002 257.528999,130.168665 257.749,130.418 C257.969001,130.667335 258.240332,130.861666 258.563,131.001 C258.885668,131.140334 259.226665,131.235666 259.586,131.287 C259.945335,131.338334 260.271665,131.371333 260.565,131.386 C261.635672,131.459334 262.647662,131.521666 263.601,131.573 C264.554338,131.624334 265.485662,131.789332 266.395,132.068 C266.849669,132.229334 267.282331,132.430999 267.693,132.673 C268.103669,132.915001 268.462998,133.200998 268.771,133.531 C269.079002,133.861002 269.324666,134.234998 269.508,134.653 C269.691334,135.071002 269.783,135.521998 269.783,136.006 Z M291.733,133.036 C291.733,134.356007 291.469003,135.540328 290.941,136.589 C290.412997,137.637672 289.701671,138.528663 288.807,139.262 C287.912329,139.995337 286.885672,140.556331 285.727,140.945 C284.568328,141.333669 283.35834,141.528 282.097,141.528 C280.850327,141.528 279.651339,141.330002 278.5,140.934 C277.348661,140.537998 276.333004,139.96967 275.453,139.229 C274.572996,138.48833 273.869003,137.597339 273.341,136.556 C272.812997,135.514661 272.549,134.34134 272.549,133.036 C272.549,131.701327 272.820331,130.506005 273.363,129.45 C273.905669,128.393995 274.631662,127.503004 275.541,126.777 C276.450338,126.050996 277.491661,125.497335 278.665,125.116 C279.838339,124.734665 281.062994,124.544 282.339,124.544 C283.571006,124.544 284.755328,124.745665 285.892,125.149 C287.028672,125.552335 288.029662,126.12433 288.895,126.865 C289.760338,127.60567 290.449664,128.500328 290.963,129.549 C291.476336,130.597672 291.733,131.759994 291.733,133.036 Z M288.411,133.036 C288.411,132.170662 288.246002,131.37867 287.916,130.66 C287.585998,129.94133 287.135003,129.325336 286.563,128.812 C285.990997,128.298664 285.32367,127.899001 284.561,127.613 C283.79833,127.326999 282.977004,127.184 282.097,127.184 C281.231662,127.184 280.421337,127.326999 279.666,127.613 C278.910663,127.899001 278.250669,128.298664 277.686,128.812 C277.121331,129.325336 276.677668,129.94133 276.355,130.66 C276.032332,131.37867 275.871,132.170662 275.871,133.036 C275.871,133.901338 276.032332,134.689663 276.355,135.401 C276.677668,136.112337 277.121331,136.728331 277.686,137.249 C278.250669,137.769669 278.910663,138.172999 279.666,138.459 C280.421337,138.745001 281.231662,138.888 282.097,138.888 C282.977004,138.888 283.79833,138.745001 284.561,138.459 C285.32367,138.172999 285.990997,137.773336 286.563,137.26 C287.135003,136.746664 287.585998,136.13067 287.916,135.412 C288.246002,134.69333 288.411,133.901338 288.411,133.036 Z M312.077,141 L307.303,141 L307.303,140.45 C307.479001,140.435333 307.6,140.384 307.666,140.296 C307.732,140.208 307.754,140.109001 307.732,139.999 C307.71,139.888999 307.655,139.768001 307.567,139.636 C307.479,139.503999 307.383667,139.379334 307.281,139.262 L298.371,130.022 L298.371,139.57 C298.371,139.848668 298.411333,140.039333 298.492,140.142 C298.572667,140.244667 298.774332,140.347333 299.097,140.45 L299.097,141 L294.543,141 L294.543,140.45 C294.880335,140.376666 295.089333,140.277667 295.17,140.153 C295.250667,140.028333 295.291,139.834001 295.291,139.57 L295.291,126.502 C295.291,126.208665 295.243334,126.007001 295.148,125.897 C295.052666,125.786999 294.851002,125.695334 294.543,125.622 L294.543,125.072 L299.845,125.072 L299.845,125.622 C299.580999,125.666 299.449,125.819999 299.449,126.084 C299.449,126.230667 299.485666,126.362666 299.559,126.48 C299.632334,126.597334 299.720333,126.7 299.823,126.788 L308.293,135.72 L308.293,126.502 C308.293,126.237999 308.26,126.054667 308.194,125.952 C308.128,125.849333 307.911668,125.739334 307.545,125.622 L307.545,125.072 L312.077,125.072 L312.077,125.622 C311.739665,125.724667 311.534334,125.834666 311.461,125.952 C311.387666,126.069334 311.351,126.252665 311.351,126.502 L311.351,139.57 C311.351,139.848668 311.398666,140.046666 311.494,140.164 C311.589334,140.281334 311.783665,140.376666 312.077,140.45 L312.077,141 Z M327.823,129.912 C327.823,129.369331 327.680001,128.955001 327.394,128.669 C327.107999,128.382999 326.752335,128.174001 326.327,128.042 C325.901665,127.909999 325.447002,127.836667 324.963,127.822 C324.478998,127.807333 324.046335,127.8 323.665,127.8 L319.067,127.8 L319.067,132.178 L323.775,132.178 C324.171002,132.178 324.607331,132.163333 325.084,132.134 C325.560669,132.104667 326.000665,132.016667 326.404,131.87 C326.807335,131.723333 327.144665,131.496002 327.416,131.188 C327.687335,130.879998 327.823,130.454669 327.823,129.912 Z M332.091,141 L326.239,141 L326.239,140.45 C326.385667,140.420667 326.517666,140.369334 326.635,140.296 C326.752334,140.222666 326.811,140.105334 326.811,139.944 C326.811,139.826666 326.774334,139.702001 326.701,139.57 C326.627666,139.437999 326.547,139.313334 326.459,139.196 L323.203,134.818 L319.067,134.818 L319.067,139.57 C319.067,139.863335 319.121999,140.064999 319.232,140.175 C319.342001,140.285001 319.543665,140.376666 319.837,140.45 L319.837,141 L314.821,141 L314.821,140.45 C315.114335,140.376666 315.312333,140.285001 315.415,140.175 C315.517667,140.064999 315.569,139.863335 315.569,139.57 L315.569,126.502 C315.569,126.208665 315.517667,126.007001 315.415,125.897 C315.312333,125.786999 315.114335,125.695334 314.821,125.622 L314.821,125.072 L324.567,125.072 C325.315004,125.072 326.077663,125.137999 326.855,125.27 C327.632337,125.402001 328.339997,125.636665 328.978,125.974 C329.616003,126.311335 330.140331,126.780664 330.551,127.382 C330.961669,127.983336 331.167,128.745995 331.167,129.67 C331.167,130.359337 331.060668,130.971664 330.848,131.507 C330.635332,132.042336 330.338335,132.507998 329.957,132.904 C329.575665,133.300002 329.117336,133.629999 328.582,133.894 C328.046664,134.158001 327.46367,134.363333 326.833,134.51 L330.111,138.932 C330.389668,139.313335 330.682998,139.628665 330.991,139.878 C331.299002,140.127335 331.665665,140.317999 332.091,140.45 L332.091,141 Z M351.753,125.622 C351.327665,125.739334 350.931668,125.937332 350.565,126.216 C350.198331,126.494668 349.890335,126.802665 349.641,127.14 L344.647,135.17 L344.647,139.548 C344.647,139.856002 344.694666,140.064999 344.79,140.175 C344.885334,140.285001 345.079665,140.376666 345.373,140.45 L345.373,141 L340.093,141 L340.093,140.45 C340.371668,140.376666 340.562333,140.281334 340.665,140.164 C340.767667,140.046666 340.819,139.841335 340.819,139.548 L340.819,135.522 L335.913,127.14 C335.648999,126.758665 335.330002,126.436001 334.956,126.172 C334.581998,125.907999 334.160336,125.724667 333.691,125.622 L333.691,125.072 L340.357,125.072 L340.357,125.622 C339.975665,125.695334 339.748334,125.849332 339.675,126.084 C339.601666,126.318668 339.660332,126.567999 339.851,126.832 L342.975,132.31 L346.297,126.832 C346.502334,126.553332 346.553667,126.296668 346.451,126.062 C346.348333,125.827332 346.135668,125.680667 345.813,125.622 L345.813,125.072 L351.753,125.072 L351.753,125.622 Z" id="BACK-BROOK-MASONRY" fill="#C6B5B5"></path>
            <g id="Group-4">
                <g id="BBM">
                    <use fill="black" fill-opacity="1" filter="url(#filter-2)" xlink:href="#path-1"></use>
                    <use fill="#AA1019" fill-rule="evenodd" xlink:href="#path-1"></use>
                </g>
            </g>
            <g id="Group-3" filter="url(#filter-3)" transform="translate(360.000000, 108.000000)" fill="#AA1019">
                <rect id="Rectangle-2" x="14" y="0" width="26" height="16"></rect>
                <rect id="Rectangle-2-Copy" x="42" y="0" width="26" height="16"></rect>
                <rect id="Rectangle-2-Copy-2" x="0" y="18" width="26" height="16"></rect>
                <rect id="Rectangle-2-Copy-3" x="28" y="18" width="26" height="16"></rect>
                <rect id="Rectangle-2-Copy-4" x="56" y="18" width="26" height="16"></rect>
            </g>
        </g>
    </g>
</svg>